<?xml version="1.0" encoding="utf-8"?>
<!-- Generator: Adobe Illustrator 21.0.0, SVG Export Plug-In . SVG Version: 6.00 Build 0)  -->
<svg version="1.1" id="Layer_1" xmlns="http://www.w3.org/2000/svg" xmlns:xlink="http://www.w3.org/1999/xlink" x="0px" y="0px"
	 viewBox="0 0 150 150" style="enable-background:new 0 0 150 150;" xml:space="preserve">
<path fill="#909DA0" d="M74.4,67.8c4.5,0,8.2-3.6,8.2-8.1V31.2c0-4.5-3.7-8.1-8.2-8.1s-8.2,3.6-8.2,8.1v28.5C66.2,64.2,69.9,67.8,74.4,67.8z"/>
<path fill="#909DA0" d="M120,72.2c0-18.9-11.5-35.2-28-42.1c-1-0.4-2.2-0.3-3.1,0.3C88,31,87.4,32,87.4,33.1v10.8c0,1.2,0.6,2.3,1.7,2.9
	c8.9,5.1,14.6,14.6,14.6,25.4c0,0.6,0,1.2-0.1,1.8H120C120,73.4,120,72.8,120,72.2z"/>
<path fill="#909DA0" d="M45.1,72.2c0-10.8,5.9-20.3,14.7-25.4c1-0.6,1.6-1.7,1.6-2.9V33.1c0-1.1-0.6-2.1-1.5-2.7s-2.1-0.7-3.1-0.3
	c-16.5,6.9-28,23.1-28,42.1c0,0.6,0,1.2,0,1.8h16.3C45.1,73.4,45.1,72.8,45.1,72.2z"/>
<path fill="#909DA0" d="M74.4,101.5c15.6,0,28.3-12.2,29.3-27.5H45.1C46.1,89.3,58.8,101.5,74.4,101.5z"/>
<path fill="#909DA0" d="M120,74c-1,24.3-20.9,43.8-45.5,43.8S29.9,98.4,28.9,74H0v71c0,2.8,2.2,5,5,5h140c2.8,0,5-2.2,5-5V74H120z"/>
</svg>
